:FULLY-SPECIFIED
:FORCE-ALL-JOINTS-BE-3DOF
:DEGREES
238
root 5.64744 15.6826 -25.8451 10.2583 23.8551 -5.07041
lfemur -36.3981 30.7463 -4.88366
ltibia 50.7573 0 0
lfoot -14.8649 2.67511 0
ltoes 2.72944 0 0
rfemur -21.6035 -12.595 4.25649
rtibia 43.4479 0 0
rfoot -20.1486 -5.9928 0
rtoes 47.8043 0 0
lowerback 1.24571 -2.16579 1.55628
upperback -0.644785 -2.82605 2.16839
thorax -1.31109 -1.41485 1.4158
lowerneck -11.312 -2.69356 0.11717
upperneck 1.33043 -3.63172 0.492466
head 2.41015 -1.78928 -0.0588541
lclavicle -7.29226e-15 -8.78837e-15 0
lhumerus -53.3597 -37.176 120.481
lradius 60.9906 0 0
lwrist 18.8983 0 0
lhand 11.1857 15.0009 0
lfingers 7.12502 0 0
lthumb 36.2431 41.1976 0
rclavicle -7.29226e-15 -8.78837e-15 0
rhumerus -36.3648 -3.63732 -68.1866
rradius 89.5174 0 0
rwrist -8.46647 0 0
rhand 26.0318 -20.6882 0
rfingers 7.12502 0 0
rthumb 48.6133 -751.064 0
239
root 5.75081 15.7167 -25.8343 10.1777 25.5281 -4.86722
lfemur -36.4288 30.1448 -5.76491
ltibia 50.3036 0 0
lfoot -15.0782 2.07761 0
ltoes 6.23653 0 0
rfemur -21.0293 -11.2752 4.07674
rtibia 44.1809 0 0
rfoot -18.1592 -7.90715 0
rtoes 46.0227 0 0
lowerback 1.20432 -2.20567 1.44056
upperback -0.664946 -2.88056 2.23642
thorax -1.29766 -1.44067 1.54991
lowerneck -11.2074 -3.03282 -0.00591337
upperneck 1.40641 -4.06898 0.513854
head 2.42205 -2.00716 -0.0539234
lclavicle -1.13569e-14 -7.47011e-15 0
lhumerus -53.2757 -36.9125 120.458
lradius 61.0444 0 0
lwrist 18.9216 0 0
lhand 10.8115 14.8333 0
lfingers 7.12502 0 0
lthumb 35.8883 41.1132 0
rclavicle -1.13569e-14 -7.47011e-15 0
rhumerus -36.7955 -4.07389 -67.8856
rradius 86.1766 0 0
rwrist -4.64306 0 0
rhand 22.5235 -19.3621 0
rfingers 7.12502 0 0
rthumb 45.3929 -751.238 0
240
root 5.85418 15.7508 -25.8235 10.097 27.2011 -4.66404
lfemur -36.4596 29.5433 -6.64615
ltibia 49.8499 0 0
lfoot -15.2915 1.48012 0
ltoes 9.74362 0 0
rfemur -20.4552 -9.95535 3.89699
rtibia 44.914 0 0
rfoot -16.1697 -9.8215 0
rtoes 44.2411 0 0
lowerback 1.16294 -2.24555 1.32485
upperback -0.685106 -2.93506 2.30445
thorax -1.28423 -1.46649 1.68401
lowerneck -11.1028 -3.37208 -0.128996
upperneck 1.4824 -4.50624 0.535242
head 2.43396 -2.22504 -0.0489926
lclavicle -1.54215e-14 -6.15185e-15 0
lhumerus -53.1917 -36.6489 120.436
lradius 61.0982 0 0
lwrist 18.9448 0 0
lhand 10.4374 14.6657 0
lfingers 7.12502 0 0
lthumb 35.5335 41.0289 0
rclavicle -1.54215e-14 -6.15185e-15 0
rhumerus -37.2262 -4.51046 -67.5846
rradius 82.8359 0 0
rwrist -0.819658 0 0
rhand 19.0151 -18.0359 0
rfingers 7.12502 0 0
rthumb 42.1725 -751.412 0
241
root 5.95755 15.7849 -25.8127 10.0163 28.8741 -4.46085
lfemur -36.4904 28.9418 -7.5274
ltibia 49.3962 0 0
lfoot -15.5048 0.882627 0
ltoes 13.2507 0 0
rfemur -19.881 -8.63553 3.71724
rtibia 45.647 0 0
rfoot -14.1802 -11.7358 0
rtoes 42.4595 0 0
lowerback 1.12155 -2.28543 1.20914
upperback -0.705267 -2.98957 2.37248
thorax -1.2708 -1.49231 1.81812
lowerneck -10.9982 -3.71134 -0.252079
upperneck 1.55839 -4.9435 0.55663
head 2.44586 -2.44293 -0.0440619
lclavicle -1.94861e-14 -4.8336e-15 0
lhumerus -53.1076 -36.3854 120.413
lradius 61.152 0 0
lwrist 18.9681 0 0
lhand 10.0633 14.4981 0
lfingers 7.12502 0 0
lthumb 35.1786 40.9446 0
rclavicle -1.94861e-14 -4.8336e-15 0
rhumerus -37.6568 -4.94703 -67.2836
rradius 79.4951 0 0
rwrist 3.00375 0 0
rhand 15.5068 -16.7098 0
rfingers 7.12502 0 0
rthumb 38.9522 -751.585 0
242
root 6.06092 15.8189 -25.8019 9.93558 30.5471 -4.25766
lfemur -36.5211 28.3403 -8.40865
ltibia 48.9426 0 0
lfoot -15.7182 0.285133 0
ltoes 16.7578 0 0
rfemur -19.3068 -7.31572 3.53749
rtibia 46.38 0 0
rfoot -12.1908 -13.6502 0
rtoes 40.678 0 0
lowerback 1.08017 -2.3253 1.09343
upperback -0.725427 -3.04408 2.44052
thorax -1.25736 -1.51812 1.95222
lowerneck -10.8936 -4.05061 -0.375163
upperneck 1.63438 -5.38075 0.578018
head 2.45777 -2.66081 -0.0391312
lclavicle -2.35508e-14 -3.51534e-15 0
lhumerus -53.0236 -36.1219 120.391
lradius 61.2059 0 0
lwrist 18.9914 0 0
lhand 9.68917 14.3304 0
lfingers 7.12502 0 0
lthumb 34.8238 40.8602 0
rclavicle -2.35508e-14 -3.51534e-15 0
rhumerus -38.0875 -5.38359 -66.9825
rradius 76.1543 0 0
rwrist 6.82715 0 0
rhand 11.9985 -15.3837 0
rfingers 7.12502 0 0
rthumb 35.7318 -751.759 0
243
root 6.16429 15.853 -25.7911 9.85489 32.2201 -4.05447
lfemur -36.5519 27.7388 -9.2899
ltibia 48.4889 0 0
lfoot -15.9315 -0.312361 0
ltoes 20.2649 0 0
rfemur -18.7326 -5.9959 3.35774
rtibia 47.113 0 0
rfoot -10.2013 -15.5645 0
rtoes 38.8964 0 0
lowerback 1.03878 -2.36518 0.977716
upperback -0.745588 -3.09859 2.50855
thorax -1.24393 -1.54394 2.08633
lowerneck -10.789 -4.38987 -0.498246
upperneck 1.71036 -5.81801 0.599406
head 2.46967 -2.87869 -0.0342005
lclavicle -2.76154e-14 -2.19709e-15 0
lhumerus -52.9395 -35.8584 120.368
lradius 61.2597 0 0
lwrist 19.0147 0 0
lhand 9.31505 14.1628 0
lfingers 7.12502 0 0
lthumb 34.4689 40.7759 0
rclavicle -2.76154e-14 -2.19709e-15 0
rhumerus -38.5181 -5.82016 -66.6815
rradius 72.8135 0 0
rwrist 10.6506 0 0
rhand 8.49015 -14.0576 0
rfingers 7.12502 0 0
rthumb 32.5115 -751.932 0
244
root 6.26766 15.8871 -25.7803 9.77419 33.8931 -3.85129
lfemur -36.5827 27.1373 -10.1712
ltibia 48.0352 0 0
lfoot -16.1448 -0.909854 0
ltoes 23.772 0 0
rfemur -18.1585 -4.67608 3.17799
rtibia 47.8461 0 0
rfoot -8.21184 -17.4789 0
rtoes 37.1148 0 0
lowerback 0.9974 -2.40506 0.862004
upperback -0.765748 -3.15309 2.57658
thorax -1.2305 -1.56976 2.22043
lowerneck -10.6844 -4.72913 -0.621329
upperneck 1.78635 -6.25527 0.620794
head 2.48158 -3.09657 -0.0292698
lclavicle -3.168e-14 -8.78831e-16 0
lhumerus -52.8555 -35.5948 120.346
lradius 61.3135 0 0
lwrist 19.0379 0 0
lhand 8.94093 13.9952 0
lfingers 7.12502 0 0
lthumb 34.1141 40.6916 0
rclavicle -3.168e-14 -8.78831e-16 0
rhumerus -38.9488 -6.25673 -66.3805
rradius 69.4728 0 0
rwrist 14.474 0 0
rhand 4.98182 -12.7314 0
rfingers 7.12502 0 0
rthumb 29.2911 -752.106 0
245
root 6.37103 15.9212 -25.7695 9.6935 35.5661 -3.6481
lfemur -36.6134 26.5358 -11.0524
ltibia 47.5815 0 0
lfoot -16.3581 -1.50735 0
ltoes 27.2791 0 0
rfemur -17.5843 -3.35626 2.99824
rtibia 48.5791 0 0
rfoot -6.22238 -19.3932 0
rtoes 35.3332 0 0
lowerback 0.956016 -2.44494 0.746292
upperback -0.785909 -3.2076 2.64461
thorax -1.21707 -1.59558 2.35453
lowerneck -10.5798 -5.06839 -0.744412
upperneck 1.86234 -6.69253 0.642182
head 2.49348 -3.31445 -0.0243391
lclavicle -3.57446e-14 4.39425e-16 0
lhumerus -52.7715 -35.3313 120.323
lradius 61.3673 0 0
lwrist 19.0612 0 0
lhand 8.56681 13.8276 0
lfingers 7.12502 0 0
lthumb 33.7593 40.6072 0
rclavicle -3.57446e-14 4.39425e-16 0
rhumerus -39.3795 -6.6933 -66.0795
rradius 66.132 0 0
rwrist 18.2974 0 0
rhand 1.47349 -11.4053 0
rfingers 7.12502 0 0
rthumb 26.0708 -752.28 0
246
root 6.4744 15.9553 -25.7587 9.61281 37.2391 -3.44491
lfemur -36.6442 25.9343 -11.9337
ltibia 47.1279 0 0
lfoot -16.5714 -2.10484 0
ltoes 30.7862 0 0
rfemur -17.0101 -2.03644 2.81849
rtibia 49.3121 0 0
rfoot -4.23292 -21.3076 0
rtoes 33.5516 0 0
lowerback 0.914632 -2.48481 0.630579
upperback -0.806069 -3.26211 2.71265
thorax -1.20363 -1.62139 2.48864
lowerneck -10.4751 -5.40765 -0.867495
upperneck 1.93832 -7.12978 0.66357
head 2.50539 -3.53233 -0.0194084
lclavicle -3.98093e-14 1.75768e-15 0
lhumerus -52.6874 -35.0678 120.301
lradius 61.4211 0 0
lwrist 19.0845 0 0
lhand 8.19268 13.6599 0
lfingers 7.12502 0 0
lthumb 33.4044 40.5229 0
rclavicle -3.98093e-14 1.75768e-15 0
rhumerus -39.8101 -7.12987 -65.7785
rradius 62.7912 0 0
rwrist 22.1208 0 0
rhand -2.03484 -10.0792 0
rfingers 7.12502 0 0
rthumb 22.8504 -752.453 0
247
root 6.57777 15.9894 -25.7479 9.53212 38.912 -3.24173
lfemur -36.6749 25.3328 -12.8149
ltibia 46.6742 0 0
lfoot -16.7847 -2.70234 0
ltoes 34.2932 0 0
rfemur -16.436 -0.716624 2.63875
rtibia 50.0452 0 0
rfoot -2.24345 -23.2219 0
rtoes 31.77 0 0
lowerback 0.873248 -2.52469 0.514867
upperback -0.82623 -3.31662 2.78068
thorax -1.1902 -1.64721 2.62274
lowerneck -10.3705 -5.74691 -0.990578
upperneck 2.01431 -7.56704 0.684958
head 2.51729 -3.75021 -0.0144777
lclavicle -4.38739e-14 3.07594e-15 0
lhumerus -52.6034 -34.8043 120.278
lradius 61.4749 0 0
lwrist 19.1077 0 0
lhand 7.81856 13.4923 0
lfingers 7.12502 0 0
lthumb 33.0496 40.4385 0
rclavicle -4.38739e-14 3.07594e-15 0
rhumerus -40.2408 -7.56644 -65.4775
rradius 59.4505 0 0
rwrist 25.9442 0 0
rhand -5.54317 -8.75303 0
rfingers 7.12502 0 0
rthumb 19.63 -752.627 0
248
root 6.68114 16.0235 -25.7371 9.45143 40.585 -3.03854
lfemur -36.7057 24.7313 -13.6962
ltibia 46.2205 0 0
lfoot -16.9981 -3.29983 0
ltoes 37.8003 0 0
rfemur -15.8618 0.603195 2.459
rtibia 50.7782 0 0
rfoot -0.253989 -25.1363 0
rtoes 29.9885 0 0
lowerback 0.831863 -2.56457 0.399155
upperback -0.84639 -3.37113 2.84871
thorax -1.17677 -1.67303 2.75685
lowerneck -10.2659 -6.08618 -1.11366
upperneck 2.0903 -8.0043 0.706346
head 2.5292 -3.9681 -0.00954699
lclavicle -4.79385e-14 4.39419e-15 0
lhumerus -52.5193 -34.5408 120.256
lradius 61.5288 0 0
lwrist 19.131 0 0
lhand 7.44444 13.3247 0
lfingers 7.12502 0 0
lthumb 32.6947 40.3542 0
rclavicle -4.79385e-14 4.39419e-15 0
rhumerus -40.6714 -8.00301 -65.1765
rradius 56.1097 0 0
rwrist 29.7676 0 0
rhand -9.05151 -7.42689 0
rfingers 7.12502 0 0
rthumb 16.4097 -752.8 0
249
root 6.78451 16.0576 -25.7263 9.37073 42.258 -2.83535
lfemur -36.7365 24.1298 -14.5774
ltibia 45.7668 0 0
lfoot -17.2114 -3.89732 0
ltoes 41.3074 0 0
rfemur -15.2876 1.92301 2.27925
rtibia 51.5112 0 0
rfoot 1.73547 -27.0506 0
rtoes 28.2069 0 0
lowerback 0.790479 -2.60445 0.283443
upperback -0.866551 -3.42563 2.91674
thorax -1.16334 -1.69885 2.89095
lowerneck -10.1613 -6.42544 -1.23674
upperneck 2.16629 -8.44156 0.727734
head 2.5411 -4.18598 -0.00461628
lclavicle -5.20031e-14 5.71245e-15 0
lhumerus -52.4353 -34.2772 120.233
lradius 61.5826 0 0
lwrist 19.1543 0 0
lhand 7.07032 13.1571 0
lfingers 7.12502 0 0
lthumb 32.3399 40.2699 0
rclavicle -5.20031e-14 5.71245e-15 0
rhumerus -41.1021 -8.43958 -64.8755
rradius 52.7689 0 0
rwrist 33.591 0 0
rhand -12.5598 -6.10076 0
rfingers 7.12502 0 0
rthumb 13.1893 -752.974 0
250
root 6.88788 16.0917 -25.7155 9.29004 43.931 -2.63217
lfemur -36.7672 23.5283 -15.4587
ltibia 45.3132 0 0
lfoot -17.4247 -4.49482 0
ltoes 44.8145 0 0
rfemur -14.7135 3.24283 2.0995
rtibia 52.2443 0 0
rfoot 3.72494 -28.965 0
rtoes 26.4253 0 0
lowerback 0.749095 -2.64432 0.167731
upperback -0.886711 -3.48014 2.98478
thorax -1.1499 -1.72466 3.02506
lowerneck -10.0567 -6.7647 -1.35983
upperneck 2.24227 -8.87881 0.749122
head 2.55301 -4.40386 0.000314423
lclavicle -5.60678e-14 7.0307e-15 0
lhumerus -52.3512 -34.0137 120.211
lradius 61.6364 0 0
lwrist 19.1775 0 0
lhand 6.69619 12.9894 0
lfingers 7.12502 0 0
lthumb 31.985 40.1855 0
rclavicle -5.60678e-14 7.0307e-15 0
rhumerus -41.5327 -8.87615 -64.5745
rradius 49.4282 0 0
rwrist 37.4144 0 0
rhand -16.0682 -4.77463 0
rfingers 7.12502 0 0
rthumb 9.96898 -753.147 0
251
root 6.99125 16.1258 -25.7047 9.20935 45.604 -2.42898
lfemur -36.798 22.9268 -16.3399
ltibia 44.8595 0 0
lfoot -17.638 -5.09231 0
ltoes 48.3216 0 0
rfemur -14.1393 4.56265 1.91975
rtibia 52.9773 0 0
rfoot 5.7144 -30.8793 0
rtoes 24.6437 0 0
lowerback 0.707711 -2.6842 0.0520184
upperback -0.906872 -3.53465 3.05281
thorax -1.13647 -1.75048 3.15916
lowerneck -9.95213 -7.10396 -1.48291
upperneck 2.31826 -9.31607 0.77051
head 2.56491 -4.62174 0.00524513
lclavicle -6.01324e-14 8.34896e-15 0
lhumerus -52.2672 -33.7502 120.188
lradius 61.6902 0 0
lwrist 19.2008 0 0
lhand 6.32207 12.8218 0
lfingers 7.12502 0 0
lthumb 31.6302 40.1012 0
rclavicle -6.01324e-14 8.34896e-15 0
rhumerus -41.9634 -9.31272 -64.2735
rradius 46.0874 0 0
rwrist 41.2378 0 0
rhand -19.5765 -3.4485 0
rfingers 7.12502 0 0
rthumb 6.74862 -753.321 0
